# xmcd CD database file
#
# Track frame offsets:
#	150
#	24202
#	45818
#	76589
#	99617
#	128377
#	144942
#	170980
#	193259
#	219612
#	250217
#	275590
#
# Disc length: 4096 seconds
#
# Revision: 1
# Processed by: cddbd v1.5.1PL0 Copyright (c) Steve Scherf et al.
# Submitted via: CDex 1.50
#
DISCID=9b0ffe0c
DTITLE=Flip Philips Quartet - Live at the Beowulf. Arbors Historical Series, Volume 5
DYEAR=1978
DGENRE=Jazz
TTITLE0=Beowulf Blues
TTITLE1=Whirly Bird
TTITLE2=Indiana
TTITLE3=The Carioca
TTITLE4=Lemon Aid 21
TTITLE5=The Brotherhood of Man
TTITLE6=Tricotism
TTITLE7=I Want To Be Happy
TTITLE8=Hodge Podge
TTITLE9=Sweet and Lovely
TTITLE10=Body and Soul
TTITLE11=In a Mellow Tone
EXTD=YEAR: 1978
EXTT0=
EXTT1=
EXTT2=
EXTT3=
EXTT4=
EXTT5=
EXTT6=
EXTT7=
EXTT8=
EXTT9=
EXTT10=
EXTT11=
PLAYORDER=
